<svg width="564" height="305" viewBox="0 0 564 305" fill="none" xmlns="http://www.w3.org/2000/svg">
<g opacity="0.5">
<path d="M-62.089 440.244L13.2474 159.085L218.888 364.857L143.551 646.016L-62.089 440.244Z" stroke="#383838" stroke-width="6"/>
<path d="M513.465 278.837L231.668 354.847L25.6294 148.122L307.427 72.1116L513.465 278.837Z" stroke="#383838" stroke-width="6"/>
<mask id="path-3-inside-1_405_2483" fill="white">
<path d="M445.968 577.573C445.876 577.918 445.606 578.187 445.261 578.28L159.824 654.861C159.08 655.06 158.4 654.38 158.599 653.636L235.131 368.014C235.223 367.669 235.493 367.4 235.838 367.307L521.275 290.726C522.019 290.527 522.7 291.207 522.5 291.951L445.968 577.573Z"/>
</mask>
<path d="M521.275 290.726L522.83 296.522L521.275 290.726ZM235.131 368.014L240.927 369.567L235.131 368.014ZM235.838 367.307L237.393 373.102L235.838 367.307ZM159.824 654.861L161.379 660.656L159.824 654.861ZM158.599 653.636L152.803 652.083L158.599 653.636ZM445.261 578.28L443.707 572.485L445.261 578.28ZM443.707 572.485L158.269 649.066L161.379 660.656L446.816 584.075L443.707 572.485ZM164.395 655.189L240.927 369.567L229.335 366.461L152.803 652.083L164.395 655.189ZM237.393 373.102L522.83 296.522L519.721 284.931L234.283 361.512L237.393 373.102ZM516.705 290.398L440.173 576.02L451.764 579.126L528.296 293.504L516.705 290.398ZM522.83 296.522C519.112 297.519 515.708 294.117 516.705 290.398L528.296 293.504C529.691 288.298 524.926 283.535 519.721 284.931L522.83 296.522ZM240.927 369.567C240.464 371.292 239.117 372.64 237.393 373.102L234.283 361.512C231.868 362.16 229.983 364.047 229.335 366.461L240.927 369.567ZM158.269 649.066C161.987 648.068 165.391 651.47 164.395 655.189L152.803 652.083C151.408 657.289 156.173 662.052 161.379 660.656L158.269 649.066ZM446.816 584.075C449.231 583.427 451.117 581.541 451.764 579.126L440.173 576.02C440.635 574.295 441.982 572.947 443.707 572.485L446.816 584.075Z" fill="#428260" mask="url(#path-3-inside-1_405_2483)"/>
</g>
</svg>
